<mxfile host="app.diagrams.net">
  <diagram name="App System Design">
    <mxGraphModel dx="1073" dy="638" grid="1" gridSize="10" guides="1" tooltips="1" connect="1" arrows="1" fold="1" page="1" pageScale="1" pageWidth="850" pageHeight="1100" math="0" shadow="0">
      <root>
        <mxCell id="0" />
        <mxCell id="1" parent="0" />
        
        <!-- User Entity -->
        <mxCell id="user" value="User" style="shape=rectangle;whiteSpace=wrap;html=1;" vertex="1" parent="1">
          <mxGeometry x="50" y="50" width="140" height="120" as="geometry" />
        </mxCell>
        <mxCell id="user_attrs" value="user_id (PK)\nrole (ENUM)\nname\nemail\npassword\nphone_number\naddress (JSON)\ncreated_at, updated_at" style="whiteSpace=wrap;html=1;" vertex="1" parent="user">
          <mxGeometry x="0" y="0" relative="1" as="geometry" />
        </mxCell>
        
        <!-- Service Entity -->
        <mxCell id="service" value="Service" style="shape=rectangle;whiteSpace=wrap;html=1;" vertex="1" parent="1">
          <mxGeometry x="250" y="50" width="140" height="80" as="geometry" />
        </mxCell>
        <mxCell id="service_attrs" value="service_id (PK)\nname\nprice_range\ncreated_at" style="whiteSpace=wrap;html=1;" vertex="1" parent="service">
          <mxGeometry x="0" y="0" relative="1" as="geometry" />
        </mxCell>
        
        <!-- Booking Entity -->
        <mxCell id="booking" value="Booking" style="shape=rectangle;whiteSpace=wrap;html=1;" vertex="1" parent="1">
          <mxGeometry x="450" y="50" width="160" height="100" as="geometry" />
        </mxCell>
        <mxCell id="booking_attrs" value="booking_id (PK)\ncustomer_id (FK)\ncleaner_id (FK)\nservice_id (FK)\nstatus (ENUM)\nscheduled_time\ntotal_price\ncreated_at, updated_at" style="whiteSpace=wrap;html=1;" vertex="1" parent="booking">
          <mxGeometry x="0" y="0" relative="1" as="geometry" />
        </mxCell>
        
        <!-- Review Entity -->
        <mxCell id="review" value="Review" style="shape=rectangle;whiteSpace=wrap;html=1;" vertex="1" parent="1">
          <mxGeometry x="250" y="200" width="160" height="80" as="geometry" />
        </mxCell>
        <mxCell id="review_attrs" value="review_id (PK)\ncustomer_id (FK)\ncleaner_id (FK)\nrating\ncomments\ncreated_at" style="whiteSpace=wrap;html=1;" vertex="1" parent="review">
          <mxGeometry x="0" y="0" relative="1" as="geometry" />
        </mxCell>
        
        <!-- Relationships -->
        <mxCell id="user_to_booking" value="" style="edgeStyle=orthogonalEdgeStyle;rounded=0;orthogonalLoop=1;jettySize=auto;" edge="1" parent="1" source="user" target="booking">
          <mxGeometry relative="1" as="geometry" />
        </mxCell>
        <mxCell id="service_to_booking" value="" style="edgeStyle=orthogonalEdgeStyle;rounded=0;orthogonalLoop=1;jettySize=auto;" edge="1" parent="1" source="service" target="booking">
          <mxGeometry relative="1" as="geometry" />
        </mxCell>
        <mxCell id="user_to_review" value="" style="edgeStyle=orthogonalEdgeStyle;rounded=0;orthogonalLoop=1;jettySize=auto;" edge="1" parent="1" source="user" target="review">
          <mxGeometry relative="1" as="geometry" />
        </mxCell>
        <mxCell id="review_to_booking" value="" style="edgeStyle=orthogonalEdgeStyle;rounded=0;orthogonalLoop=1;jettySize=auto;" edge="1" parent="1" source="review" target="booking">
          <mxGeometry relative="1" as="geometry" />
        </mxCell>
      </root>
    </mxGraphModel>
  </diagram>
</mxfile>
